<svg width="201" height="35" viewBox="0 0 201 35" fill="none" xmlns="http://www.w3.org/2000/svg">
<path fill-rule="evenodd" clip-rule="evenodd" d="M17.455 35H11.4229C11.4229 35 16.8205 31.6917 16.3948 27.236C15.9694 22.788 14.491 19.786 10.7881 16.419C13.5206 17.6827 15.4617 18.5518 17.455 20.816C19.4482 18.5445 21.3893 17.6754 24.1215 16.419C20.4186 19.786 18.9405 22.788 18.5152 27.236C18.0894 31.684 23.487 35 23.487 35H17.455Z" fill="#009A2E"/>
<path fill-rule="evenodd" clip-rule="evenodd" d="M9.49772 9.91873C11.1999 9.91873 12.5736 11.27 12.5736 12.928C12.5736 14.5933 11.1924 15.9372 9.49772 15.9372C7.79559 15.9372 6.42188 14.586 6.42188 12.928C6.42188 11.2627 7.79559 9.91873 9.49772 9.91873Z" fill="#009A2E"/>
<path fill-rule="evenodd" clip-rule="evenodd" d="M4.86051 9.18091C5.69667 9.18091 6.3688 9.84578 6.3688 10.6565C6.3688 11.4742 5.68921 12.1318 4.86051 12.1318C4.02436 12.1318 3.3526 11.4669 3.3526 10.6565C3.34514 9.84578 4.02436 9.18091 4.86051 9.18091Z" fill="#009A2E"/>
<path fill-rule="evenodd" clip-rule="evenodd" d="M7.27169 4.78394C8.27932 4.78394 9.10057 5.5874 9.10057 6.57358C9.10057 7.5594 8.27932 8.36286 7.27169 8.36286C6.26368 8.36286 5.44243 7.5594 5.44243 6.57358C5.43498 5.5874 6.25622 4.78394 7.27169 4.78394Z" fill="#009A2E"/>
<path fill-rule="evenodd" clip-rule="evenodd" d="M9.51197 1.02995C10.1986 1.02995 10.7511 1.57046 10.7511 2.24226C10.7511 2.91442 10.1986 3.45456 9.51197 3.45456C8.82493 3.45456 8.27246 2.90713 8.27246 2.24226C8.27246 1.57046 8.82493 1.02995 9.51197 1.02995Z" fill="#009A2E"/>
<path fill-rule="evenodd" clip-rule="evenodd" d="M3.05464 5.06148C3.74131 5.06148 4.29378 5.60198 4.29378 6.27415C4.29378 6.94595 3.73385 7.48645 3.05464 7.48645C2.3676 7.48645 1.8155 6.94595 1.8155 6.27415C1.80805 5.60198 2.3676 5.06148 3.05464 5.06148Z" fill="#009A2E"/>
<path fill-rule="evenodd" clip-rule="evenodd" d="M14.5136 0C15.611 0 16.4919 0.86911 16.4919 1.93553C16.4919 3.00195 15.6036 3.87106 14.5136 3.87106C13.4239 3.87106 12.5352 3.00195 12.5352 1.93553C12.5277 0.86911 13.4165 0 14.5136 0Z" fill="#009A2E"/>
<path fill-rule="evenodd" clip-rule="evenodd" d="M17.4556 11.5475C19.4787 11.5475 21.1212 13.1545 21.1212 15.1337C21.1212 17.113 19.4787 18.72 17.4556 18.72C15.4325 18.72 13.79 17.113 13.79 15.1337C13.79 13.1545 15.4325 11.5475 17.4556 11.5475Z" fill="#009A2E"/>
<path fill-rule="evenodd" clip-rule="evenodd" d="M9.55609 17.9019C10.9373 17.9019 12.0497 18.9975 12.0497 20.3415C12.0497 21.6924 10.9298 22.7807 9.55609 22.7807C8.17493 22.7807 7.06254 21.6851 7.06254 20.3415C7.05508 18.9975 8.17493 17.9019 9.55609 17.9019Z" fill="#009A2E"/>
<path fill-rule="evenodd" clip-rule="evenodd" d="M2.52383 14.4324C3.905 14.4324 5.01739 15.528 5.01739 16.872C5.01739 18.2232 3.89754 19.3115 2.52383 19.3115C1.15012 19.3188 0.0302734 18.2232 0.0302734 16.8793C0.0302734 15.528 1.15012 14.4324 2.52383 14.4324Z" fill="#009A2E"/>
<path fill-rule="evenodd" clip-rule="evenodd" d="M25.4958 9.91873C23.7936 9.91873 22.4199 11.27 22.4199 12.928C22.4199 14.5933 23.7936 15.9372 25.4958 15.9372C27.1979 15.9372 28.5716 14.586 28.5716 12.928C28.5716 11.2627 27.1904 9.91873 25.4958 9.91873Z" fill="#009A2E"/>
<path fill-rule="evenodd" clip-rule="evenodd" d="M30.1323 9.18091C29.2962 9.18091 28.624 9.84578 28.624 10.6565C28.624 11.4742 29.3036 12.1318 30.1323 12.1318C30.9685 12.1318 31.6402 11.4669 31.6402 10.6565C31.6402 9.84578 30.9685 9.18091 30.1323 9.18091Z" fill="#009A2E"/>
<path fill-rule="evenodd" clip-rule="evenodd" d="M13.3046 4.21425C14.8352 4.21425 16.0818 5.43421 16.0818 6.93136C16.0818 8.4285 14.8352 9.64847 13.3046 9.64847C11.7743 9.64847 10.5273 8.4285 10.5273 6.93136C10.5273 5.43421 11.7743 4.21425 13.3046 4.21425Z" fill="#009A2E"/>
<path fill-rule="evenodd" clip-rule="evenodd" d="M21.6063 4.21425C20.0757 4.21425 18.8291 5.43421 18.8291 6.93136C18.8291 8.4285 20.0682 9.64847 21.6063 9.64847C23.1366 9.64847 24.3832 8.4285 24.3832 6.93136C24.3832 5.43421 23.1366 4.21425 21.6063 4.21425Z" fill="#009A2E"/>
<path fill-rule="evenodd" clip-rule="evenodd" d="M27.7205 4.78394C26.7128 4.78394 25.8916 5.5874 25.8916 6.57358C25.8916 7.5594 26.7128 8.36286 27.7205 8.36286C28.7285 8.36286 29.5497 7.5594 29.5497 6.57358C29.5497 5.5874 28.7285 4.78394 27.7205 4.78394Z" fill="#009A2E"/>
<path fill-rule="evenodd" clip-rule="evenodd" d="M25.4735 1.02995C24.7868 1.02995 24.2344 1.57046 24.2344 2.24226C24.2344 2.91442 24.7943 3.45456 25.4735 3.45456C26.1606 3.45456 26.713 2.90713 26.713 2.24226C26.7205 1.57046 26.1606 1.02995 25.4735 1.02995Z" fill="#009A2E"/>
<path fill-rule="evenodd" clip-rule="evenodd" d="M31.9384 5.06148C31.2517 5.06148 30.6992 5.60198 30.6992 6.27415C30.6992 6.94595 31.2517 7.48645 31.9384 7.48645C32.625 7.48645 33.1775 6.94595 33.1775 6.27415C33.1775 5.60198 32.625 5.06148 31.9384 5.06148Z" fill="#009A2E"/>
<path fill-rule="evenodd" clip-rule="evenodd" d="M20.4793 0C19.3819 0 18.501 0.86911 18.501 1.93553C18.501 3.00195 19.3893 3.87106 20.4793 3.87106C21.569 3.87106 22.4577 3.00195 22.4577 1.93553C22.4577 0.86911 21.569 0 20.4793 0Z" fill="#009A2E"/>
<path fill-rule="evenodd" clip-rule="evenodd" d="M25.4359 17.9019C24.0548 17.9019 22.9424 18.9975 22.9424 20.3415C22.9424 21.6924 24.0622 22.7807 25.4359 22.7807C26.8171 22.7807 27.9295 21.6851 27.9295 20.3415C27.9295 18.9975 26.8097 17.9019 25.4359 17.9019Z" fill="#009A2E"/>
<mask id="mask0_55833_9248" style="mask-type:luminance" maskUnits="userSpaceOnUse" x="29" y="14" width="6" height="6">
<path d="M29.9678 14.3785H35.0004V19.3269H29.9678V14.3785Z" fill="white"/>
</mask>
<g mask="url(#mask0_55833_9248)">
<path fill-rule="evenodd" clip-rule="evenodd" d="M32.4613 14.4324C31.0802 14.4324 29.9678 15.528 29.9678 16.872C29.9678 18.2233 31.0876 19.3116 32.4613 19.3116C33.8425 19.3116 34.9549 18.216 34.9549 16.872C34.9549 15.528 33.8425 14.4324 32.4613 14.4324Z" fill="#009A2E"/>
</g>
<path d="M13.2807 6.69797L13.2524 7.16469L7.21289 6.81422L7.2412 6.3475L13.2807 6.69797Z" fill="#30A8DF"/>
<path d="M27.6893 6.81422L21.5748 7.16469L21.5469 6.69797L27.6613 6.3475L27.6893 6.81422Z" fill="#30A8DF"/>
<path d="M14.7012 1.99651L13.4993 6.98492L13.0342 6.87773L14.2361 1.88914L14.7012 1.99651Z" fill="#30A8DF"/>
<path d="M21.794 6.88098L21.3275 6.98184L20.2002 1.99326L20.6668 1.8924L21.794 6.88098Z" fill="#30A8DF"/>
<mask id="mask1_55833_9248" style="mask-type:luminance" maskUnits="userSpaceOnUse" x="3" y="0" width="32" height="27">
<path d="M3.24609 0.840302H34.9999V26.4227H3.24609V0.840302Z" fill="white"/>
</mask>
<g mask="url(#mask1_55833_9248)">
<path d="M21.6931 6.69766L25.6215 12.7544L32.918 16.8935L25.4993 20.5575L25.2841 20.1402L31.9152 16.8649L25.3314 13.1302L25.2809 13.1014L21.4303 7.16506H13.4003L9.65575 13.0515L9.25 12.8045L13.1349 6.69766H21.6931Z" fill="#30A8DF"/>
</g>
<mask id="mask2_55833_9248" style="mask-type:luminance" maskUnits="userSpaceOnUse" x="0" y="6" width="16" height="21">
<path d="M0 6.81575H15.7479V26.4227H0V6.81575Z" fill="white"/>
</mask>
<g mask="url(#mask2_55833_9248)">
<path d="M9.75112 20.3469L9.27337 20.3507L9.21676 13.3318L2.60693 17.0814L2.36719 16.6771L9.68821 12.5242L9.75112 20.3469Z" fill="#30A8DF"/>
</g>
<path d="M25.6897 12.9298L25.6301 20.3507L25.1523 20.3469L25.2119 12.9261L25.6897 12.9298Z" fill="#30A8DF"/>
<mask id="mask3_55833_9248" style="mask-type:luminance" maskUnits="userSpaceOnUse" x="0" y="10" width="16" height="17">
<path d="M0 10.7371H15.7479V26.4227H0V10.7371Z" fill="white"/>
</mask>
<g mask="url(#mask3_55833_9248)">
<path d="M9.62035 20.1401L9.40507 20.5575L2.37988 17.0878L2.59517 16.6707L9.62035 20.1401Z" fill="#30A8DF"/>
</g>
<path d="M21.9642 6.69766L17.4104 14.8394L12.8643 6.69766H21.9642ZM17.4107 13.8649L21.1581 7.16506H13.6698L17.4107 13.8649Z" fill="#30A8DF"/>
<path fill-rule="evenodd" clip-rule="evenodd" d="M1.75519 10.9264C2.51679 10.9264 3.13636 11.5329 3.13636 12.2777C3.13636 13.0228 2.51679 13.6289 1.75519 13.6289C0.993964 13.6289 0.374023 13.0228 0.374023 12.2777C0.374023 11.5329 0.993964 10.9264 1.75519 10.9264Z" fill="#009A2E"/>
<path fill-rule="evenodd" clip-rule="evenodd" d="M33.1478 10.9264C33.9094 10.9264 34.5289 11.5329 34.5289 12.2777C34.5289 13.0228 33.9094 13.6289 33.1478 13.6289C32.3865 13.6289 31.7666 13.0228 31.7666 12.2777C31.7666 11.5329 32.3865 10.9264 33.1478 10.9264Z" fill="#009A2E"/>
<path d="M43.2095 24.08C43.2095 23.04 43.3429 21.8533 43.6095 20.52L46.8495 3.6H55.6895L52.4895 20.64C52.2495 21.8933 52.1295 22.9867 52.1295 23.92C52.1295 24.8267 52.3162 25.52 52.6895 26C53.0895 26.48 53.6495 26.72 54.3695 26.72C55.0895 26.72 55.6762 26.6267 56.1295 26.44C56.5829 26.2533 56.9962 25.9333 57.3695 25.48C58.0895 24.5733 58.6762 22.96 59.1295 20.64L62.3695 3.6H68.4095L65.2095 20.6C64.4629 24.3867 63.0629 27.04 61.0095 28.56C59.0095 30.0533 56.0362 30.8 52.0895 30.8C49.1295 30.8 46.8629 30.16 45.2895 28.88C43.9029 27.76 43.2095 26.16 43.2095 24.08ZM72.4073 10.52C71.5007 9.82667 71.0473 8.74667 71.0473 7.28C71.0473 5.78667 71.5273 4.65333 72.4873 3.88C73.474 3.10666 74.8073 2.72 76.4873 2.72C77.554 2.72 79.354 2.90667 81.8873 3.28L84.6073 3.68C85.514 3.78666 86.434 3.84 87.3673 3.84C88.3273 3.84 89.1273 3.64 89.7673 3.24C90.7273 4.09333 91.2073 5.13333 91.2073 6.36C91.2073 7.58667 90.6607 8.64 89.5673 9.52C88.4473 10.4533 87.1673 10.92 85.7273 10.92C85.034 10.92 84.1273 10.8267 83.0073 10.64C81.7007 14.7467 81.0473 18.2267 81.0473 21.08C81.0473 23.9333 81.7673 26.1067 83.2073 27.6C82.5407 28.8 81.714 29.6267 80.7273 30.08C79.7407 30.56 78.5007 30.8 77.0073 30.8C75.5407 30.8 74.3407 30.4 73.4073 29.6C72.5007 28.7733 72.0473 27.52 72.0473 25.84C72.0473 23.8933 72.5807 21.32 73.6473 18.12C74.714 14.9467 76.0473 12.1467 77.6473 9.72C76.874 9.64 76.0873 9.6 75.2873 9.6C73.634 9.6 72.674 9.90667 72.4073 10.52ZM104.83 27C104.83 25.1333 105.204 22.3333 105.95 18.6H100.03L97.8305 30H89.4705L94.5505 3.6H102.99L100.67 15.4H106.59L108.79 3.6H117.23C116.857 5.57333 116.43 7.66667 115.95 9.88L114.59 16.4C113.577 21.4667 113.07 25.1067 113.07 27.32C113.07 28.2267 113.217 28.9333 113.51 29.44C112.177 30.3467 110.724 30.8 109.15 30.8C107.604 30.8 106.497 30.4267 105.83 29.68C105.164 28.9333 104.83 28.04 104.83 27ZM135.752 30.8C132.338 30.8 130.472 28.3733 130.152 23.52H123.272C122.738 24.7467 122.285 25.8933 121.912 26.96L120.872 30H115.272L127.872 3.6H136.472L138.152 23.04C138.418 25.84 139.085 27.6533 140.152 28.48C139.378 30.0267 137.912 30.8 135.752 30.8ZM124.512 20.6H130.032L129.552 10.32V9.24L126.712 15.52L124.512 20.6ZM160.049 30.8C156.635 30.8 154.769 28.3733 154.449 23.52H147.569C147.035 24.7467 146.582 25.8933 146.209 26.96L145.169 30H139.569L152.169 3.6H160.769L162.449 23.04C162.715 25.84 163.382 27.6533 164.449 28.48C163.675 30.0267 162.209 30.8 160.049 30.8ZM148.809 20.6H154.329L153.849 10.32V9.24L151.009 15.52L148.809 20.6ZM166.505 30L171.305 3.6H179.905L186.145 21.76L189.465 3.6L193.905 3.64L189.025 30H179.865L174.105 12.52L170.905 30H166.505Z" fill="white"/>
</svg>
