<svg xmlns="http://www.w3.org/2000/svg" viewBox="0 0 256 256" focusable="false" color="var(--token-feecde84-d2df-406e-9c49-2b4dab446477, rgb(33, 133, 68))" style="user-select: none; width: 100%; height: 100%; display: inline-block; fill: var(--token-feecde84-d2df-406e-9c49-2b4dab446477, rgb(33, 133, 68)); color: var(--token-feecde84-d2df-406e-9c49-2b4dab446477, rgb(33, 133, 68)); flex-shrink: 0;"><g color="var(--token-feecde84-d2df-406e-9c49-2b4dab446477, rgb(33, 133, 68))" weight="regular"><path d="M100,56H40A16,16,0,0,0,24,72v64a16,16,0,0,0,16,16h60v8a32,32,0,0,1-32,32,8,8,0,0,0,0,16,48.05,48.05,0,0,0,48-48V72A16,16,0,0,0,100,56Zm0,80H40V72h60ZM216,56H156a16,16,0,0,0-16,16v64a16,16,0,0,0,16,16h60v8a32,32,0,0,1-32,32,8,8,0,0,0,0,16,48.05,48.05,0,0,0,48-48V72A16,16,0,0,0,216,56Zm0,80H156V72h60Z"></path></g></svg>