<svg xmlns="http://www.w3.org/2000/svg" viewBox="0 0 256 256" focusable="false" color="rgb(255, 255, 255)" style="user-select: none; width: 100%; height: 100%; display: inline-block; fill: rgb(255, 255, 255); color: rgb(255, 255, 255); flex-shrink: 0;"><g color="rgb(255, 255, 255)" weight="thin"><path d="M128,28A100,100,0,1,0,228,128,100.11,100.11,0,0,0,128,28Zm0,192a92,92,0,1,1,92-92A92.1,92.1,0,0,1,128,220Zm46.12-95.39-64-40A4,4,0,0,0,104,88v80a4,4,0,0,0,2.06,3.5,4.06,4.06,0,0,0,1.94.5,4,4,0,0,0,2.12-.61l64-40a4,4,0,0,0,0-6.78ZM112,160.78V95.22L164.45,128Z"></path></g></svg>